<svg width="150" height="150" viewBox="0 0 150 150" fill="none" xmlns="http://www.w3.org/2000/svg">
<circle cx="75" cy="75" r="75" fill="#D9D9D9"/>
<circle cx="73.1249" cy="54.3752" r="30" fill="#787878"/>
<path fill-rule="evenodd" clip-rule="evenodd" d="M19.4163 125.354C29.016 103.962 50.5023 89.0625 75.4686 89.0625C100.164 89.0625 121.455 103.641 131.204 124.661C117.463 140.201 97.3757 150 74.9999 150C52.9588 150 33.1384 140.492 19.4163 125.354Z" fill="#787878"/>
<circle cx="47.8124" cy="44.9995" r="9.375" fill="#787878"/>
<circle cx="3.75" cy="3.75" r="3.75" transform="matrix(1 0 0 -1 45.0001 105)" fill="#D9D9D9"/>
<circle cx="56.25" cy="33.7502" r="9.375" fill="#787878"/>
<circle cx="3.75" cy="3.75" r="3.75" transform="matrix(1 0 0 -1 53.4374 112.5)" fill="#D9D9D9"/>
<circle cx="67.4999" cy="30.0005" r="9.375" fill="#787878"/>
<circle cx="3.75" cy="3.75" r="3.75" transform="matrix(1 0 0 -1 64.6876 116.25)" fill="#D9D9D9"/>
<circle cx="78.7501" cy="30.0005" r="9.375" fill="#787878"/>
<circle cx="3.75" cy="3.75" r="3.75" transform="matrix(1 0 0 -1 75.9374 116.25)" fill="#D9D9D9"/>
<circle cx="89.9999" cy="33.7502" r="9.375" fill="#787878"/>
<circle cx="3.75" cy="3.75" r="3.75" transform="matrix(1 0 0 -1 87.1876 112.5)" fill="#D9D9D9"/>
<circle cx="98.4375" cy="44.9995" r="9.375" fill="#787878"/>
<circle cx="3.75" cy="3.75" r="3.75" transform="matrix(1 0 0 -1 95.6249 105)" fill="#D9D9D9"/>
</svg>
