<?xml version="1.0" encoding="UTF-8" standalone="no"?>
<!-- Created with Inkscape (http://www.inkscape.org/) -->

<svg
   version="1.1"
   id="svg25"
   xml:space="preserve"
   width="788.99866"
   height="441.12534"
   viewBox="0 0 788.99866 441.12534"
   xmlns="http://www.w3.org/2000/svg"
   xmlns:svg="http://www.w3.org/2000/svg"><defs
     id="defs29"><clipPath
       clipPathUnits="userSpaceOnUse"
       id="clipPath41"><path
         d="M 0,1080 H 1920 V 0 H 0 Z"
         id="path39" /></clipPath><filter
       style="color-interpolation-filters:sRGB"
       id="filter13807"
       x="-0.24664826"
       y="-0.26394602"
       width="1.476481"
       height="1.527892"><feFlood
         flood-opacity="0.752941"
         flood-color="rgb(9,60,121)"
         result="flood"
         id="feFlood13797" /><feComposite
         in="flood"
         in2="SourceGraphic"
         operator="in"
         result="composite1"
         id="feComposite13799" /><feGaussianBlur
         in="composite1"
         stdDeviation="36.3854"
         result="blur"
         id="feGaussianBlur13801" /><feOffset
         dx="-6.38905"
         dy="0"
         result="offset"
         id="feOffset13803" /><feComposite
         in="SourceGraphic"
         in2="offset"
         operator="over"
         result="composite2"
         id="feComposite13805" /></filter><clipPath
       clipPathUnits="userSpaceOnUse"
       id="clipPath16789"><path
         style="fill:#ffffa7;fill-opacity:0.274611;stroke:#0000b9;stroke-width:0.75px;stroke-linecap:butt;stroke-linejoin:miter;stroke-opacity:0.181711"
         d="m 574.60157,327.79279 41.26958,165.68041 -27.87758,165.1636 h -76.882 l 38.193,-124.00501 z"
         id="path16791" /></clipPath></defs><g
     id="g31"
     transform="matrix(1.3333333,0,0,-1.3333333,-483.73675,878.18234)"><g
       id="g35"
       transform="translate(81.93762,2.9263584)"
       style="display:inline"><g
         id="g37"
         clip-path="url(#clipPath41)"
         transform="translate(-335.76102,-4.3895584)"
         style="display:inline"><g
           id="g47"
           transform="translate(683.58797,660.09997)"
           style="display:inline"><path
             d="m 0,0 h 85.811 c 12.4,-68.946 33.729,-206.839 33.729,-206.839 0,0 16.0657,134.075067 26.289,206.839 h 87.299 l 31.4972,-328.32916 -46.3772,-2.51484 c -6.449,39.682 -18.353,119.54 -18.353,119.54 l -4.464,28.274 3.03499,45.9855 L 183.526,-179.062 158.229,-330.844 H 81.347 L 47.618,-120.036 20.336,-330.844 h -87.298 z"
             style="display:inline;fill:#8cc2de;fill-opacity:1;fill-rule:nonzero;stroke:none"
             id="path49" /></g><g
           id="g133"
           transform="matrix(1,0,0,-1,901.83597,329.25597)"
           style="display:inline;fill:#6cc4aa;fill-opacity:1"><path
             d="M 0,0 H 85.811 L 119.54,-206.839 145.829,0 h 87.299 l 73.411,-330.844 h -88.291 l -29.266,206.84 -30.753,-206.84 H 81.347 L 47.618,-120.036 20.336,-330.844 h -93.747 z"
             style="display:inline;fill:#6cc4aa;fill-opacity:1;fill-rule:nonzero;stroke:none"
             id="path131" /></g></g></g><path
       d="m 648.01257,658.63679 h 85.811 l 33.729,-206.839 26.289,206.839 h 87.299 l 73.411,-330.844 h -88.291 l -29.266,206.84 -30.753,-206.84 h -76.882 l -33.729,210.808 -27.282,-210.808 h -93.747 z"
       style="display:inline;fill:#6cc4aa;fill-opacity:1;fill-rule:nonzero;stroke:none;filter:url(#filter13807)"
       id="path13630"
       transform="matrix(1,0,0,-1,0,986.42956)"
       clip-path="url(#clipPath16789)" /></g></svg>
