<svg width="150" height="150" viewBox="0 0 150 150" fill="none" xmlns="http://www.w3.org/2000/svg">
<circle cx="75" cy="75" r="75" fill="#D9D9D9"/>
<circle cx="75.0001" cy="54.3752" r="30" fill="#787878"/>
<path fill-rule="evenodd" clip-rule="evenodd" d="M19.4163 125.354C29.016 103.962 50.5023 89.0625 75.4686 89.0625C100.164 89.0625 121.455 103.641 131.204 124.661C117.463 140.201 97.3757 150 74.9999 150C52.9588 150 33.1384 140.492 19.4163 125.354Z" fill="#787878"/>
<path d="M96.723 66.8177C92.598 69.4427 90.4688 63.6049 84.0668 60.724C74.6918 56.5052 69.5356 71.974 84.0668 74.7865C95.6918 77.0365 102.348 66.349 104.223 60.724C103.442 61.6615 100.848 64.1927 96.723 66.8177Z" fill="#D9D9D9"/>
<path d="M53.4372 66.8177C57.5622 69.4427 59.6915 63.6049 66.0935 60.724C75.4685 56.5052 80.6247 71.974 66.0935 74.7865C54.4685 77.0365 47.8122 66.349 45.9372 60.724C46.7185 61.6615 49.3122 64.1927 53.4372 66.8177Z" fill="#D9D9D9"/>
</svg>
